<?xml version="1.0" encoding="utf-8"?>
<!-- Generator: Adobe Illustrator 27.9.1, SVG Export Plug-In . SVG Version: 6.00 Build 0)  -->
<svg version="1.1" id="Layer_1" xmlns="http://www.w3.org/2000/svg" xmlns:xlink="http://www.w3.org/1999/xlink" x="0px" y="0px"
	 viewBox="0 0 512 512" style="enable-background:new 0 0 512 512;" xml:space="preserve">
<style type="text/css">
	.st0{fill:#BCDCFB;}
	.st1{fill:#0CB8B6;}
</style>
<g>
	<rect x="293.8" y="351.1" class="st0" width="0" height="30.6"/>
	<path class="st0" d="M218.3,271.9c0,0.5-0.1,1.1-0.1,1.6h0C218.2,273,218.2,272.5,218.3,271.9z"/>
	<path class="st0" d="M293.8,273.5L293.8,273.5c0-0.5-0.1-1.1-0.1-1.6C293.8,272.5,293.8,273,293.8,273.5z"/>
	<rect x="218.2" y="297" class="st0" width="75.7" height="30.6"/>
	<rect x="218.3" y="405.1" class="st0" width="75.6" height="30.6"/>
	<path class="st0" d="M293.8,459.2v1.1c-1.1,19.9-16.7,35.7-36.8,35.7c-20.4,0-38.2-16.5-38.8-36.8H293.8z"/>
	<rect x="293.8" y="351.1" class="st0" width="0" height="30.6"/>
	<path class="st0" d="M293.8,273.5h-75.6c0.4-15,10.3-28.8,24.2-34c6.1-2.4,12.9-3,19.3-2.1c0,0,0,0,0,0c7.9,1.2,15.3,5,21,10.6
		c6.3,6.3,10.4,14.9,11,23.8C293.8,272.5,293.8,273,293.8,273.5z"/>
	<path class="st0" d="M218.3,271.9c0,0.5-0.1,1.1-0.1,1.6h0C218.2,273,218.2,272.5,218.3,271.9z"/>
	<path class="st0" d="M293.8,273.5L293.8,273.5c0-0.5-0.1-1.1-0.1-1.6C293.8,272.5,293.8,273,293.8,273.5z"/>
	<rect x="218.2" y="297" class="st0" width="75.7" height="30.6"/>
	<rect x="218.3" y="405.1" class="st0" width="75.6" height="30.6"/>
	<path class="st0" d="M293.8,459.2v1.1c-1.1,19.9-16.7,35.7-36.8,35.7c-20.4,0-38.2-16.5-38.8-36.8H293.8z"/>
	<path class="st0" d="M308.4,446.6v1.8c0,6-4.9,10.9-10.9,10.9h-83.1c-6.8,0-11.6-6.1-10.9-12.6c0-6,4.9-10.9,10.9-10.9h83.1
		C303.5,435.7,308.4,440.6,308.4,446.6z"/>
	<path class="st0" d="M308.4,392.5c0,0.7,0,2.1,0,2.8c-0.5,5.5-5.2,9.9-10.8,9.9h-83.1c-5.6,0-10.3-4.4-10.8-9.9
		c-0.1-0.7-0.1-2.1-0.1-2.8c0-6,4.9-10.9,10.9-10.9h83.1C303.5,381.7,308.4,386.5,308.4,392.5z"/>
	<path class="st0" d="M308.4,338.5c0.7,6.5-4.1,12.7-10.9,12.6h-83.1c-6.8,0-11.6-6.1-10.9-12.6c0-6,4.9-10.9,10.9-10.9h83.1
		C303.5,327.6,308.4,332.5,308.4,338.5z"/>
	<rect x="218.2" y="351.1" class="st0" width="75.6" height="30.6"/>
	<path class="st0" d="M308.4,284.4c0.7,6.5-4.1,12.7-10.9,12.6h-83.1c-6.8,0-11.6-6.1-10.9-12.6c0-6,4.9-10.9,10.9-10.9h83.1
		C303.5,273.5,308.4,278.4,308.4,284.4z"/>
	<path class="st1" d="M413.9,126.3c0.3-6.8,0-13.8-0.7-20.5c-2.5-23.4-10.5-44.8-23-61.2c-7.1-9.3-15.4-16.8-24.8-22.4
		c-27.1-16.7-52.6-13-83-4c-17.3,3.9-35.5,3.9-52.8,0c-19.2-4.4-35.8-10.7-53.5-6.9c-21.8,3.8-40.4,15.1-54.3,33.3
		c-12,16-18.8,34.2-22,54.2c-4.1,23.8-1.1,48.3,9.3,70.1c8.1,19.4,16.5,39.4,15.2,59c-1.5,29.4,2.2,59.7,10.6,90.4
		c5.3,18.7,13,38.2,24.1,53.9c9.5,13.6,23.1,25.7,39.9,28.5c2.3,5.5,7.4,9.5,13.4,10.3v18.9c-8.3,1.1-14.7,8.1-14.7,16.7v1.8
		c0,8.8,6.7,16,15.3,16.8c3.5,20.8,22.2,36.8,44.2,36.8c21.5,0,39-15.5,42.3-36.9c8.5-0.9,15.1-8.1,15.1-16.8v-1.8
		c0-8.5-6.4-15.6-14.6-16.7v-18.9c6-0.8,11-4.8,13.3-10.3c13.1-2.2,24.5-10.1,33.2-20c16.7-18.7,27.7-48.2,33.7-73.7
		c5.1-21.5,8-46,8.1-66.6c0-4.3-0.1-8.5-0.4-12.5c-1.2-19.6,7.1-39.6,15.2-59c1-2.4,2-4.9,3-7.2l0,0c4.6-11.2,7.2-23,7.9-35.1
		C413.9,126.5,413.9,126.4,413.9,126.3z M303.8,376.9c-1.3-0.5-2.6-0.9-4-1v-18.9c5.2-0.6,9.6-3.7,11.9-7.7c2.1-3.3,3-7.2,2.7-11.1
		c-0.1-3.8-1.4-7.2-3.6-10c-2.4-3.3-6.1-5.7-11-6.4v-18.9c9.6-1.1,15.3-9.9,14.6-18.8c-0.4-8.5-6.1-15.6-15.2-16.5
		c-3.1-20.6-22.5-37-43.3-36.6c-3.7,0-7.5,0.5-11.1,1.4c-16.4,4.2-29.4,18.4-32.1,35.2c-5.1,0.5-8.9,2.9-11.4,6.2
		c-2.3,2.8-3.7,6.4-3.8,10.2c-0.4,3.8,0.6,7.6,2.5,10.9c2.2,4.1,6.8,7.3,12.1,8v18.9c-5,0.6-8.6,3.1-11.1,6.4
		c-2.1,2.8-3.4,6.2-3.5,10c-0.4,3.9,0.6,7.7,2.6,11c2.3,4.1,6.8,7.2,12,7.8v18.9c-1.4,0.2-2.8,0.6-4.1,1.1c-3.5,1.4-6.4,4-8.2,7.3
		c-0.7,1.3-1.3,2.6-1.6,4c-4.2-1.1-8.3-3-12.2-5.7c-12-7.6-24.6-26.3-32-45.4c-12.3-30.7-19.6-72.1-17.6-108.6
		c1.4-22.4-7.5-43.7-16.1-64.3c-14.2-29-12.6-63.9,0-93.1c11.4-28.1,38.7-49.4,69.6-49.3c13.9,0.8,32.1,7.6,46.6,9.6
		c12.9,1.9,26.2,1.9,39.1,0c21.4-3.1,44.3-14.1,64.7-7.2c26.4,6.9,44,26.7,53.4,50.8c5.3,13.4,8,28.2,8.4,42.9
		c0.1,2.6,0,5.3-0.1,7.9c-0.6,10.7-2.9,21.1-7,31.1c-1,2.4-2,4.8-3,7.2c-8.6,20.6-17.5,41.9-16.1,64.3c0.2,3.7,0.4,7.7,0.4,11.7
		c-0.2,34.3-7.3,71.3-18.9,99c-11.5,27.4-26.7,44.5-43.4,48.9C312.5,383,308.7,378.8,303.8,376.9z M224.2,345.1L224.2,345.1h-9.8
		c-6.6,0-6.6-11.5,0-11.5h9.8l0,0h63.6l0,0h9.8c6.6,0,6.6,11.5,0,11.5h-9.8l0,0H224.2z M287.8,357.1v18.6h-63.6v-18.6H287.8z
		 M225.1,267.4c2.4-9.6,9.5-17.9,18.6-21.8c8.7-3.8,19.3-3.3,27.6,1.4c7.8,4.3,13.7,11.9,15.8,20.6H225
		C225.1,267.5,225.1,267.4,225.1,267.4z M209.6,286.2c-0.4-3.2,1.3-6.7,4.9-6.6h83.1c6.6-0.1,6.6,11.5,0,11.5h-83.1
		C211.8,291,209.6,288.7,209.6,286.2z M224.2,303h63.6v18.6h-63.6L224.2,303L224.2,303z M257.1,490c-15.1,0-28.5-10.8-32-24.8h62
		C284,479.6,271.9,490,257.1,490z M302.4,446.6v1.8c0,2.6-2.2,4.9-4.9,4.9h-83.1c-2.6,0-4.9-2.2-4.9-4.9v-1.8c0-2.6,2.2-4.9,4.9-4.9
		h83.1C300.2,441.7,302.4,443.9,302.4,446.6z M224.2,429.7v-18.6h63.6v18.6H224.2z M297.6,399.1h-83.1c-2.5,0-4.7-2-4.8-4.5
		c0-0.3,0-1.2,0-1.6c-0.2-2.8,2-5.4,4.9-5.4h9.8h63.6h9.8c2.7,0,4.9,2.2,4.9,4.9v1.8C302.5,396.9,300.2,399.1,297.6,399.1z"/>
</g>
</svg>
