<?xml version="1.0" encoding="utf-8"?>
<!-- Generator: Adobe Illustrator 27.9.1, SVG Export Plug-In . SVG Version: 6.00 Build 0)  -->
<svg version="1.1" id="Layer_1" xmlns="http://www.w3.org/2000/svg" xmlns:xlink="http://www.w3.org/1999/xlink" x="0px" y="0px"
	 viewBox="0 0 512 512" style="enable-background:new 0 0 512 512;" xml:space="preserve">
<style type="text/css">
	.st0{fill:#BCDCFB;}
	.st1{fill:#0CB8B6;}
</style>
<g>
	<ellipse class="st0" cx="401.9" cy="276.6" rx="16.9" ry="29.6"/>
	<path class="st0" d="M165.6,271.6c2.1-2.1,3.4-5,3.4-8.2c0-4.4-2.5-8.3-6.2-10.3v0c-1.6-0.9-3.5-1.4-5.5-1.4h-33.1
		c-3.1,0-5.9,1.2-8,3.2c-2.3,2.1-3.7,5.1-3.7,8.5c0,3.9,1.9,7.3,4.8,9.4v4.4c-0.5,0.4-1,0.8-1.4,1.2c-2.1,2.1-3.4,5-3.4,8.2
		c0,3.9,1.9,7.3,4.8,9.4c1.9,1.4,4.3,2.2,6.8,2.2h33.1c2.4,0,4.7-0.7,6.5-2c0.6-0.4,1.2-0.9,1.7-1.4c2.1-2.1,3.4-5,3.4-8.2
		c0-4-2-7.5-5.1-9.6v-4C164.6,272.6,165.1,272.1,165.6,271.6z"/>
	<path class="st0" d="M153.8,340.4h-2.5c-5.6,0-10.1,4.5-10.1,10.1v92.8c0,5.6,4.5,10.1,10.1,10.1h2.5c5.6,0,10.1-4.5,10.1-10.1
		v-92.8C163.9,344.9,159.4,340.4,153.8,340.4z"/>
	<path class="st0" d="M144.4,16H71c-5.1,0-9.2,4.1-9.2,9.2v80.3c0,5.1,4.1,9.2,9.2,9.2h73.5c22.9,0,41.6-18.6,41.6-41.6V57.5
		C186,34.6,167.4,16,144.4,16z"/>
	<g>
		<path class="st1" d="M456.2,284.5c-0.6-21.6-7.1-41.6-18.3-56.4c-12.5-16.4-30.1-25.7-50.8-26.8c-6-0.3-15.5,1.9-26.3,4.7
			c-2.4,0.6-4.5,1.1-6,1.5c-12.9,2.9-26.5,2.9-39.4,0c-1.5-0.3-3.6-0.9-6-1.5c-10.9-2.8-20.4-5-26.3-4.7
			c-20.7,1.1-38.3,10.4-50.8,26.8c-11.2,14.8-17.8,34.8-18.3,56.4c-0.3,11.7,1.8,23.1,6.2,33.8c0.8,1.8,1.5,3.7,2.3,5.5
			c6.1,14.5,12.4,29.5,11.4,44c-0.2,3.1-0.3,6.4-0.3,9.6c0.2,28,6.1,58.1,15.7,80.5c12,27.9,28.8,42.8,48.3,43c0,0,0.1,0,0.2,0
			c3.9,0,7.5-1.5,10.3-4.2c2.9-2.8,4.4-6.6,4.4-10.6v-82.6c0-12.5,10.2-22.7,22.7-22.7s22.7,10.2,22.7,22.7v82.6
			c0,4,1.6,7.8,4.4,10.6c2.8,2.7,6.4,4.2,10.3,4.2c0,0,0.1,0,0.2,0c19.6-0.2,36.3-15.1,48.3-43c9.7-22.4,15.6-52.5,15.7-80.5
			c0-3.2-0.1-6.4-0.3-9.6c-0.9-14.5,5.4-29.5,11.4-44c0.8-1.9,1.5-3.7,2.3-5.5l0,0C454.5,307.5,456.5,296.1,456.2,284.5z M439,313.7
			c-0.7,1.8-1.5,3.6-2.3,5.5c-6.3,15.1-13.4,32.1-12.3,49.4c0.2,2.9,0.3,5.9,0.3,8.8c-0.3,53.6-21.4,111.3-52.2,111.6c0,0,0,0,0,0
			c-0.9,0-1.6-0.5-1.9-0.8c-0.3-0.3-0.9-1-0.9-2v-82.6c0-19.1-15.6-34.7-34.7-34.7s-34.7,15.6-34.7,34.7v82.6c0,1-0.5,1.7-0.9,2
			c-0.3,0.3-0.9,0.8-1.9,0.8c0,0,0,0,0,0c-30.8-0.3-51.9-58-52.2-111.6c0-3,0.1-5.9,0.3-8.8c1.1-17.3-6-34.4-12.3-49.4
			c-0.8-1.8-1.5-3.7-2.3-5.5c-3.8-9.2-5.5-18.9-5.3-29c0.9-34.1,19.1-69.5,57.8-71.5c4.6-0.2,16,2.6,22.8,4.4
			c2.5,0.6,4.7,1.2,6.4,1.6c14.6,3.3,30,3.3,44.6,0c1.7-0.4,3.9-0.9,6.4-1.6c6.8-1.7,18.1-4.6,22.8-4.4c38.7,2,56.9,37.4,57.8,71.5
			C444.5,294.8,442.7,304.5,439,313.7z"/>
		<path class="st1" d="M401.9,241.1c-12.8,0-22.9,15.6-22.9,35.5c0,19.9,10,35.6,22.9,35.6c12.8,0,22.9-15.6,22.9-35.6
			C424.8,256.7,414.7,241.1,401.9,241.1z M401.9,300.2c-5,0-10.9-10.3-10.9-23.6c0-13.3,5.9-23.6,10.9-23.6c5,0,10.9,10.3,10.9,23.6
			C412.8,289.9,407,300.2,401.9,300.2z"/>
		<path class="st1" d="M253.1,64.1c-0.4-3-3.1-5.2-6.1-5.2h-55v-1.3c0-26.3-21.3-47.5-47.6-47.5H71c-8.4,0-15.2,6.8-15.2,15.2v80.3
			c0,8.4,6.8,15.2,15.2,15.2h20L110,253.1c-2.2,3-3.3,6.5-3.3,10.3c0,4.3,1.6,8.5,4.4,11.6c-2.8,3.2-4.4,7.3-4.4,11.6
			c0,4.5,1.8,8.8,4.8,12.1v173.4c0,7.7,2.7,15.1,8,20.7c5.8,6.1,13.6,9.4,22,9.1c16-0.4,28.5-13.9,28.5-29.9V299
			c3.3-3.3,5.1-7.7,5.1-12.4c0-4.3-1.6-8.5-4.4-11.6c2.8-3.2,4.4-7.3,4.4-11.6c0-5.5-2.6-10.6-6.8-13.9l-28.6-128.8h4.9
			c26.3,0,47.6-21.3,47.6-47.6v-2.3h55.2C250.8,70.8,253.6,67.7,253.1,64.1z M158,443.4c0,2.3-1.9,4.1-4.1,4.1h-2.6
			c-2.3,0-4.1-1.8-4.1-4.1v-92.9c0-2.3,1.9-4.1,4.1-4.1h2.6c2.3,0,4.1,1.8,4.1,4.1V443.4z M158,335c-2-0.6-4.6-0.6-6.7-0.5
			c-8.9,0-16.1,7.2-16.1,16.1v92.9c0,8.9,7.2,16.1,16.1,16.1h2.6c1.4,0,2.8-0.2,4.1-0.5v13.4c0,9.5-7.7,17.7-17.2,17.7
			c-4.8,0-9.4-2-12.7-5.5c-3.1-3.3-4.6-7.7-4.6-12.2V304.2c0.3,0,0.6,0,0.8,0h33.1c0.2,0,0.4,0,0.6,0V335z M157.4,292.2h-33.1
			c-1.2,0-2.3-0.4-3.3-1.1c-1.5-1.1-2.3-2.7-2.3-4.5c-0.1-3,2.6-5.7,5.6-5.6h33.1c3-0.1,5.7,2.6,5.6,5.6
			C163.1,289.6,160.4,292.3,157.4,292.2z M163.1,263.4c0.1,3-2.6,5.7-5.6,5.6h-33.1c-3,0.1-5.7-2.6-5.6-5.6c-0.1-3,2.6-5.7,5.6-5.6
			h33.1C160.4,257.7,163.1,260.3,163.1,263.4z M155.1,245.8h-30.8c-1.1,0-2.1,0.1-3.2,0.3L103,120.7h24.3L155.1,245.8z M180,73.1
			c0,19.6-16,35.6-35.6,35.6H71c-1.8,0-3.2-1.4-3.2-3.2V25.2c0-1.8,1.4-3.2,3.2-3.2h73.5c19.6,0,35.6,15.9,35.6,35.6V73.1z"/>
	</g>
</g>
</svg>
