<?xml version="1.0" encoding="utf-8"?>
<!-- Generator: Adobe Illustrator 27.9.1, SVG Export Plug-In . SVG Version: 6.00 Build 0)  -->
<svg version="1.1" id="Layer_1" xmlns="http://www.w3.org/2000/svg" xmlns:xlink="http://www.w3.org/1999/xlink" x="0px" y="0px"
	 viewBox="0 0 512 512" style="enable-background:new 0 0 512 512;" xml:space="preserve">
<style type="text/css">
	.st0{fill:#0CB8B6;stroke:#27B7B1;stroke-miterlimit:10;}
</style>
<g>
	<g>
		<path class="st0" d="M366.9,195.9c-8-1.4-24-6.7-32.4-6.4c-38.7,2-60.3,36-61.3,74.8c-0.3,10.8,1.7,21,5.5,30.4
			c6.6,16,14.8,33.2,13.7,50.5c-0.2,2.9-0.3,5.9-0.3,8.9c0.1,24.1,4.8,51.2,13.6,72.8c-23.7,26.4-50.7,40.9-75.1,40.9
			c-13.6,0-26.2-4-37.4-11.2c-11.2,7.2-23.8,11.2-37.4,11.2C113.3,467.6,63,424,35.9,350C-5.4,237,16.7,94.6,110.4,94.6
			c30.1,0,58.9,14.2,82.7,44.7c23.8-30.5,52.7-44.7,82.7-44.7C327.5,94.6,357.5,138,366.9,195.9z"/>
	</g>
	<path class="st0" d="M502,264c-0.5-20.9-6.9-40.3-17.8-54.6c-12.2-15.9-29.2-24.9-49.3-26c-5.8-0.3-15,1.9-25.5,4.6
		c-2.4,0.6-4.4,1.1-5.9,1.4c-10.2,2.3-21,2.7-31.5,1.2c-1.7-9.3-3.9-18.1-6.6-26.3c-5.3-16.1-12.8-31.6-23.7-44.7
		c-17-20.3-39.8-31.1-66-31.1c-21.6-0.1-42.9,7.4-60.2,20.2c-6,4.4-12,9.7-17.4,15.4c-0.4-22.6,3.7-66.3,39.9-73.9
		c3.2-0.7,5.3-3.8,4.6-7.1c-0.7-3.2-3.9-5.3-7.1-4.7c-25.1,5.2-41.4,24.6-47.2,56c-1.9,10.1-2.4,19.9-2.3,27.7
		c-19.8-20.4-47.1-33.9-75.8-33.7c-29.3,0-54,13.3-71.6,38.4c-11.5,16.4-19.7,37.3-24.3,61.6c-2.4,12.7-3.9,26.3-4.3,40.7
		c-0.4,13.6,0.1,27.6,1.6,41.7c2,19.7,5.8,39.5,11.3,58.7c2.2,7.6,4.6,15,7.2,22.3c8.3,22.8,19.1,43.4,31.7,61.1
		c7.4,10.4,15.4,19.7,24,27.8c13.3,12.6,27.5,21.8,41.6,27.2c9.5,3.6,19,5.5,28.1,5.5c10.6,0,20.7-2.2,30.3-6.5
		c2.4-1.1,4.8-2.3,7.1-3.7c6.1,3.6,12.5,6.2,19.1,7.9c24.3,6.6,50.1-1.6,70.2-15.8c7.3-5,14.5-11.1,21.5-18.1
		c11.4,23.2,26.9,36,44.4,36.2c3.9,0,7.5-1.4,10.3-4.2c2.8-2.8,4.3-6.5,4.3-10.4v-79.8c0-5.8,2.3-11.2,6.4-15.3
		c4.1-4.1,9.6-6.4,15.3-6.4c12,0,21.7,9.8,21.7,21.7v79.8c0,3.9,1.5,7.6,4.3,10.4c2.7,2.7,6.3,4.2,10.1,4.2c0,0,0.1,0,0.2,0
		c42.4-0.5,61.9-70.2,62.2-119.7c0-3-0.1-6.2-0.3-9.3c-0.9-14,5.2-28.5,11-42.5c0.8-1.8,1.5-3.6,2.2-5.4l0,0
		C500.3,286.4,502.3,275.4,502,264z M275.6,445.6c-6.2,4.3-12.9,8-19.9,10.8c-15.6,6.6-33.8,7.2-49.4,0.3c-4.5-1.9-9.1-4.7-13.2-7.4
		c-5.8,3.9-12.2,7.5-18.7,9.5c-6,1.9-12.3,2.9-18.7,2.9c-14.2,0-28.8-5.1-42.9-14.5c-17-11.2-33.3-28.5-47.2-50.2
		c-9.3-14.5-17.5-31-24-49c-10.4-28.4-16.9-59.4-18.9-89.7c-0.6-9.6-0.8-19.2-0.5-28.6c0.8-26.9,5.5-51.3,13.6-71.4
		c3.7-9.1,8-17.3,13-24.4c4-5.7,8.3-10.6,12.9-14.8c13.5-12.3,29.8-18.5,48.8-18.5c11.3,0,22.3,2.2,32.8,6.5
		c16.6,6.8,31.9,18.9,45.2,35.9c0,0,0,0.1,0.1,0.1l4.7,6l4.7-6c0,0,0,0,0,0c7.2-9.2,15-17,23.3-23.2c16.6-12.6,35.1-19.1,54.7-19.1
		c24.9-0.5,48.4,13.2,62,33.7c7.1,10.3,12.4,21.8,16.3,33.7c2,6.3,3.8,12.9,5.2,20c-8.5-2.1-18.2-4.7-25.2-4.5
		c-20.1,1.1-37.1,10-49.3,26c-10.9,14.3-17.2,33.7-17.8,54.6c-0.3,11.3,1.7,22.4,6,32.8c0.7,1.8,1.5,3.6,2.2,5.4
		c5.9,14,11.9,28.5,11,42.5c-1.3,27.3,3,55.1,12.3,80.8C291.3,433.4,283.5,440.1,275.6,445.6z M484.9,292.3
		c-0.7,1.8-1.5,3.5-2.2,5.3c-6.1,14.6-13,31.1-11.9,47.9c0.2,2.9,0.3,5.7,0.3,8.5c-0.3,51.8-20.6,107.4-50.3,107.7
		c-1.6-0.2-2.2-0.8-2.5-2.5v-79.8c0-18.6-15.1-33.7-33.7-33.7c-9,0-17.5,3.5-23.8,9.9c-6.4,6.4-9.9,14.8-9.9,23.8v79.8
		c-0.2,1.7-0.9,2.4-2.5,2.5c-19.3-0.2-31.6-23.3-37.1-37.1c-5.6-13.7-9.6-30.5-11.7-47.5c-0.9-7.7-1.4-15.5-1.5-23.1
		c0-2.8,0.1-5.7,0.3-8.5c1.1-16.8-5.8-33.3-11.9-47.9c-0.8-1.8-1.5-3.5-2.2-5.3c-3.6-8.9-5.3-18.3-5.1-27.9
		c0.9-32.5,18-66.1,54.2-68.8c11.5-0.4,28.6,6.4,40.8,7.7l0-0.3c10.7,1.1,21.6,0.5,32-1.8c1.6-0.4,3.8-0.9,6.2-1.5
		c6.5-1.7,17.5-4.4,21.9-4.2c37.2,1.9,54.8,36,55.7,68.9C490.2,274,488.5,283.4,484.9,292.3z"/>
</g>
</svg>
