<?xml version="1.0" encoding="utf-8"?>
<!-- Generator: Adobe Illustrator 27.9.1, SVG Export Plug-In . SVG Version: 6.00 Build 0)  -->
<svg version="1.1" id="Layer_1" xmlns="http://www.w3.org/2000/svg" xmlns:xlink="http://www.w3.org/1999/xlink" x="0px" y="0px"
	 viewBox="0 0 512 512" style="enable-background:new 0 0 512 512;" xml:space="preserve">
<style type="text/css">
	.st0{fill:#BCDCFB;}
	.st1{fill:#0CB8B6;}
</style>
<g>
	<path class="st0" d="M277,121.3c-9.5-0.5-31.3,6-40.1,7.9c-18,4-36.7,4-54.7,0c-8.8-1.9-30.6-8.4-40.1-7.9
		C90,124.1,60.9,169.9,59.6,222c-0.4,14.5,2.3,28.3,7.4,40.9c8.8,21.6,19.9,44.8,18.4,68c-0.2,4-0.4,8-0.4,12
		c0.4,67.9,27.3,152.6,75.7,153.1c6.3,0.1,11.5-5.2,11.5-11.5V377c0-20.5,16.8-37.3,37.3-37.3l0,0c20.5,0,37.3,16.8,37.3,37.3v107.5
		c0,6.3,5.1,11.6,11.5,11.5c48.4-0.5,75.3-85.2,75.7-153.1c0-4-0.1-8-0.4-12c-1.5-23.3,9.6-46.5,18.5-68c5.1-12.6,7.8-26.4,7.4-40.9
		C358.3,169.9,329.2,124.1,277,121.3z"/>
	<g>
		<path class="st1" d="M258.3,502c-4.6,0-8.9-1.8-12.1-5c-3.4-3.3-5.2-7.8-5.2-12.5V377c0-17.3-14.1-31.3-31.3-31.3
			s-31.3,14.1-31.3,31.3v107.5c0,4.7-1.9,9.2-5.2,12.5c-3.3,3.3-7.7,5-12.3,5c-24.7-0.3-45.9-19.2-61.3-54.9
			c-12.5-29-20.1-67.9-20.3-104.1c0-4.2,0.1-8.4,0.4-12.4c1.2-19.3-7-39.1-15-58.2c-1-2.4-2-4.8-3-7.2c-5.6-13.8-8.3-28.3-7.9-43.3
			c0.7-27.8,9.1-53.5,23.5-72.4c16-21,38.4-32.8,64.8-34.2c7.5-0.4,19.7,2.5,33.8,6.1c3.2,0.8,5.9,1.5,7.9,1.9
			c17.1,3.8,35.1,3.8,52.1,0c2-0.4,4.7-1.1,7.9-1.9c14-3.6,26.2-6.5,33.8-6.1l0,0c26.4,1.4,48.8,13.2,64.8,34.2
			c14.4,18.9,22.8,44.6,23.5,72.4c0.4,15-2.2,29.5-7.9,43.3c-1,2.4-2,4.8-3,7.2c-8,19.1-16.2,38.9-15,58.2c0.3,4,0.4,8.2,0.4,12.4
			c-0.2,36.2-7.8,75.2-20.4,104.2c-15.4,35.6-36.6,54.6-61.3,54.9C258.4,502,258.4,502,258.3,502z M209.6,333.6
			c23.9,0,43.3,19.4,43.3,43.3v107.5c0,1.5,0.6,2.9,1.6,4c1,1,2.3,1.5,3.7,1.5c0,0,0,0,0.1,0c24.8-0.3,41.1-26.1,50.4-47.6
			c11.9-27.6,19.2-64.8,19.4-99.5c0-3.9-0.1-7.8-0.4-11.6c-1.4-22.1,7.4-43.2,15.9-63.6c1-2.4,2-4.8,3-7.1c5-12.2,7.4-25.1,7-38.4
			c-1.2-45.3-25.4-92.2-76.9-94.9c-6.3-0.3-20.7,3.3-30.2,5.7c-3.3,0.8-6.1,1.6-8.3,2c-18.8,4.2-38.6,4.2-57.3,0
			c-2.2-0.5-5-1.2-8.3-2c-9.5-2.4-23.9-6.1-30.2-5.7C91,130,66.7,176.9,65.6,222.2c-0.4,13.3,2,26.2,7,38.4c1,2.4,2,4.7,3,7.1
			c8.5,20.4,17.3,41.4,15.9,63.6c-0.2,3.8-0.4,7.7-0.4,11.6c0.2,34.6,7.4,71.8,19.4,99.4c9.3,21.6,25.6,47.4,50.4,47.6
			c0,0,0,0,0.1,0c1.4,0,2.7-0.5,3.7-1.5c1.1-1,1.6-2.5,1.6-4V377C166.3,353.1,185.7,333.6,209.6,333.6z"/>
	</g>
	<polygon class="st0" points="423.9,155.4 416.1,126.8 408.3,155.4 379.7,163.2 408.3,171 416.1,199.6 423.9,171 452.5,163.2 	"/>
	<g>
		<path class="st1" d="M403.9,63.6L365.3,53l-10.5-38.6c-0.7-2.6-3.1-4.4-5.8-4.4c-2.7,0-5.1,1.8-5.8,4.4L332.6,53L294,63.6
			c-2.6,0.7-4.4,3.1-4.4,5.8c0,2.7,1.8,5.1,4.4,5.8l38.6,10.6l10.5,38.6c0.7,2.6,3.1,4.4,5.8,4.4c2.7,0,5.1-1.8,5.8-4.4l10.5-38.6
			l38.6-10.6c2.6-0.7,4.4-3.1,4.4-5.8C408.4,66.7,406.5,64.3,403.9,63.6z M358.9,75c-2,0.6-3.6,2.2-4.2,4.2L349,100l-5.7-20.7
			c-0.6-2-2.2-3.6-4.2-4.2l-20.7-5.7l20.7-5.7c2-0.6,3.6-2.2,4.2-4.2l5.7-20.7l5.7,20.7c0.6,2,2.2,3.7,4.2,4.2l20.7,5.7L358.9,75z"
			/>
	</g>
	<g>
		<path class="st1" d="M454,157.4l-25.3-6.9l-6.9-25.2c-0.7-2.6-3.1-4.4-5.8-4.4c-2.7,0-5.1,1.8-5.8,4.4l-6.9,25.2l-25.3,6.9
			c-2.6,0.7-4.4,3.1-4.4,5.8s1.8,5.1,4.4,5.8l25.3,6.9l6.9,25.2c0.7,2.6,3.1,4.4,5.8,4.4c2.7,0,5.1-1.8,5.8-4.4l6.9-25.2L454,169
			c2.6-0.7,4.4-3.1,4.4-5.8S456.7,158.1,454,157.4z M422.3,165.2c-2,0.6-3.6,2.2-4.2,4.2l-2,7.4l-2-7.4c-0.6-2.1-2.2-3.6-4.2-4.2
			l-7.4-2l7.4-2c2-0.6,3.6-2.2,4.2-4.2l2-7.4l2,7.4c0.6,2.1,2.2,3.6,4.2,4.2l7.4,2L422.3,165.2z"/>
	</g>
</g>
</svg>
